<?xml version="1.0" standalone="no"?>
<!DOCTYPE svg PUBLIC "-//W3C//DTD SVG 20010904//EN"
 "http://www.w3.org/TR/2001/REC-SVG-20010904/DTD/svg10.dtd">
<svg version="1.0" xmlns="http://www.w3.org/2000/svg"
 width="300.000000pt" height="300.000000pt" viewBox="0 0 300.000000 300.000000"
 preserveAspectRatio="xMidYMid meet">

<g transform="translate(0.000000,300.000000) scale(0.100000,-0.100000)"
fill="#000000" stroke="none">
<path d="M718 2554 c-61 -32 -58 19 -58 -1054 0 -1077 -3 -1022 60 -1055 44
-23 1516 -23 1560 0 63 33 60 -22 60 1055 0 1077 3 1022 -60 1055 -43 22
-1521 22 -1562 -1z m301 -169 c45 -23 56 -78 22 -109 -20 -18 -19 -18 6 -40
36 -31 35 -92 -2 -123 -22 -19 -38 -23 -96 -23 l-69 0 0 155 0 155 55 0 c31 0
69 -7 84 -15z m191 -140 l0 -155 -35 0 -35 0 0 155 0 155 35 0 35 0 0 -155z
m180 68 l45 -88 3 88 3 87 34 0 35 0 0 -156 0 -155 -37 3 c-37 3 -40 6 -83 88
l-45 85 -3 -87 -3 -88 -29 0 -30 0 0 155 0 155 33 0 c31 0 35 -4 77 -87z m369
72 c38 -19 46 -42 20 -56 -15 -8 -29 -7 -50 2 -64 26 -111 -40 -89 -122 13
-47 31 -61 72 -57 28 2 34 7 36 31 3 24 0 27 -27 27 -28 0 -31 3 -31 30 l0 30
60 0 60 0 0 -59 c0 -33 -3 -67 -6 -76 -10 -25 -58 -45 -108 -45 -92 0 -148 92
-125 202 20 90 109 134 188 93z m301 -11 c42 -36 60 -74 60 -129 0 -116 -97
-188 -189 -140 -35 18 -71 88 -71 138 0 123 118 200 200 131z m-880 -629 l0
-155 -155 0 -155 0 0 155 0 155 155 0 155 0 0 -155z m480 0 l0 -155 -160 0
-160 0 0 155 0 155 160 0 160 0 0 -155z m470 0 l0 -155 -155 0 -155 0 0 155 0
155 155 0 155 0 0 -155z m-950 -475 l0 -160 -155 0 -155 0 0 160 0 160 155 0
155 0 0 -160z m950 0 l0 -160 -155 0 -155 0 0 160 0 160 155 0 155 0 0 -160z
m-600 101 l23 -49 61 -7 61 -8 -47 -41 c-46 -40 -47 -42 -38 -81 18 -77 16
-80 -40 -48 l-50 28 -50 -28 c-56 -32 -58 -29 -40 48 9 39 8 41 -38 81 l-47
41 61 8 61 7 23 49 c13 27 26 49 30 49 4 0 17 -22 30 -49z m-350 -576 l0 -155
-155 0 -155 0 0 155 0 155 155 0 155 0 0 -155z m478 -2 l3 -153 -161 0 -160 0
0 148 c0 82 3 152 7 156 4 3 75 5 157 4 l151 -3 3 -152z m472 2 l0 -155 -155
0 -155 0 0 155 0 155 155 0 155 0 0 -155z"/>
<path d="M940 2310 c0 -27 3 -31 23 -28 16 2 22 10 22 28 0 18 -6 26 -22 28
-20 3 -23 -1 -23 -28z"/>
<path d="M940 2184 c0 -32 2 -35 26 -32 56 6 53 68 -2 68 -21 0 -24 -5 -24
-36z"/>
<path d="M1951 2304 c-41 -52 -16 -144 39 -144 36 0 60 31 60 78 0 82 -57 119
-99 66z"/>
</g>
</svg>
